<svg width="39" height="50" viewBox="0 0 39 50" fill="none" xmlns="http://www.w3.org/2000/svg">
<path d="M33.7244 30.5741L28.9029 27.8063L24.0815 25.0128L19.2601 22.245L14.4643 19.4516L9.64286 16.6838L4.82143 13.8903C6.41147 12.9677 8.02717 12.0451 9.64286 11.1225L14.4643 13.8903L19.2857 16.6581L24.1071 19.4259L28.9286 22.1937L33.75 24.9616L38.5714 27.7294V22.245L33.75 19.4772L28.9286 16.7094L24.0815 13.8903L19.2601 11.1225L14.4643 8.32906C16.08 7.40646 17.67 6.48385 19.2857 5.56125L24.1071 8.32906L28.9286 11.0969L33.75 13.8647L38.5714 16.6325V11.1225L33.75 8.35469L28.9286 5.58688L24.0815 2.76781L19.2601 0C17.6444 0.922604 16.0543 1.84521 14.4386 2.76781C12.8229 3.69041 11.2329 4.61302 9.61721 5.53562C8.00152 6.45823 6.41147 7.38083 4.79578 8.30343C3.20574 9.27729 1.61569 10.1999 0 11.1225C0 12.9677 0 14.8385 0 16.6838L4.82143 19.4516L9.64286 22.2194L14.4643 24.9872L19.2857 27.755L24.1071 30.5228L28.9286 33.2906L33.75 36.0584C32.1343 36.981 30.5443 37.9036 28.9286 38.8262L24.0815 36.1353L19.2601 33.3675L14.4386 30.5997L9.61721 27.8319L4.82143 25.0128C3.20574 24.0902 1.61569 23.1676 0 22.245C0 24.0902 0 25.961 0 27.8063L4.82143 30.5741L9.64286 33.3419L14.4643 36.1353L19.2857 38.9031L24.1071 41.6709C22.4915 42.5935 20.9014 43.5161 19.2857 44.4387L14.4643 41.6709L9.64286 38.9031L4.82143 36.1353C3.20574 35.2127 1.61569 34.2901 0 33.3675C0 35.2127 0 37.0835 0 38.9287L4.82143 41.6966L9.64286 44.4644L14.4643 47.2322L19.2857 50C20.9014 49.0774 22.4915 48.1548 24.1071 47.2322C25.7228 46.3096 27.3129 45.387 28.9286 44.4644C30.5443 43.5418 32.1343 42.6192 33.75 41.6966C35.3657 40.774 36.9557 39.8514 38.5714 38.9287C38.5714 37.0835 38.5714 35.2127 38.5714 33.3675L33.7244 30.5741Z" fill="#F3AA18"/>
</svg>
